<mxfile host="app.diagrams.net" modified="2021-10-27T20:33:30.724Z" agent="5.0 (Windows NT 6.1; Win64; x64) AppleWebKit/537.36 (KHTML, like Gecko) Chrome/93.0.4577.82 YaBrowser/21.9.1.684 Yowser/2.5 Safari/537.36" etag="u6oqqsxk1JDKzsqAYjhy" version="15.6.0" type="github">
  <diagram id="b-q77j6uiahfNlb-HZ7u" name="Page-1">
    <mxGraphModel dx="1102" dy="609" grid="1" gridSize="10" guides="1" tooltips="1" connect="1" arrows="1" fold="1" page="1" pageScale="1" pageWidth="827" pageHeight="1169" math="0" shadow="0">
      <root>
        <mxCell id="0" />
        <mxCell id="1" parent="0" />
        <mxCell id="gTkQZluUpDbsvUL8LyNJ-2" style="edgeStyle=orthogonalEdgeStyle;rounded=0;orthogonalLoop=1;jettySize=auto;html=1;exitX=0.5;exitY=1;exitDx=0;exitDy=0;entryX=0.5;entryY=0;entryDx=0;entryDy=0;" edge="1" parent="1" source="gTkQZluUpDbsvUL8LyNJ-1" target="gTkQZluUpDbsvUL8LyNJ-3">
          <mxGeometry relative="1" as="geometry">
            <mxPoint x="427" y="110" as="targetPoint" />
          </mxGeometry>
        </mxCell>
        <mxCell id="gTkQZluUpDbsvUL8LyNJ-1" value="Начало" style="ellipse;whiteSpace=wrap;html=1;" vertex="1" parent="1">
          <mxGeometry x="341" y="10" width="146" height="60" as="geometry" />
        </mxCell>
        <mxCell id="gTkQZluUpDbsvUL8LyNJ-5" value="" style="edgeStyle=orthogonalEdgeStyle;rounded=0;orthogonalLoop=1;jettySize=auto;html=1;" edge="1" parent="1" source="gTkQZluUpDbsvUL8LyNJ-3" target="gTkQZluUpDbsvUL8LyNJ-4">
          <mxGeometry relative="1" as="geometry" />
        </mxCell>
        <mxCell id="gTkQZluUpDbsvUL8LyNJ-3" value="x; y; R" style="shape=parallelogram;perimeter=parallelogramPerimeter;whiteSpace=wrap;html=1;fixedSize=1;" vertex="1" parent="1">
          <mxGeometry x="334" y="110" width="160" height="30" as="geometry" />
        </mxCell>
        <mxCell id="gTkQZluUpDbsvUL8LyNJ-8" value="" style="edgeStyle=orthogonalEdgeStyle;rounded=0;orthogonalLoop=1;jettySize=auto;html=1;fontSize=12;" edge="1" parent="1" source="gTkQZluUpDbsvUL8LyNJ-4" target="gTkQZluUpDbsvUL8LyNJ-7">
          <mxGeometry relative="1" as="geometry" />
        </mxCell>
        <mxCell id="gTkQZluUpDbsvUL8LyNJ-4" value="r =&amp;nbsp;&lt;span style=&quot;color: rgb(51 , 51 , 51) ; font-family: &amp;#34;arial&amp;#34; , &amp;#34;helvetica&amp;#34; , sans-serif ; background-color: rgb(255 , 255 , 255)&quot;&gt;&lt;font style=&quot;font-size: 12px&quot;&gt;√ x&lt;sup&gt;2&lt;/sup&gt; + y&lt;sup&gt;2&amp;nbsp;&lt;br&gt;&lt;/sup&gt;&lt;/font&gt;&lt;/span&gt;" style="whiteSpace=wrap;html=1;" vertex="1" parent="1">
          <mxGeometry x="334" y="170" width="160" height="30" as="geometry" />
        </mxCell>
        <mxCell id="gTkQZluUpDbsvUL8LyNJ-10" value="" style="edgeStyle=orthogonalEdgeStyle;rounded=0;orthogonalLoop=1;jettySize=auto;html=1;fontSize=12;entryX=0.425;entryY=0.017;entryDx=0;entryDy=0;entryPerimeter=0;" edge="1" parent="1" source="gTkQZluUpDbsvUL8LyNJ-7" target="gTkQZluUpDbsvUL8LyNJ-9">
          <mxGeometry relative="1" as="geometry" />
        </mxCell>
        <mxCell id="gTkQZluUpDbsvUL8LyNJ-12" value="" style="edgeStyle=orthogonalEdgeStyle;rounded=0;orthogonalLoop=1;jettySize=auto;html=1;fontSize=12;entryX=0.617;entryY=-0.017;entryDx=0;entryDy=0;entryPerimeter=0;" edge="1" parent="1" source="gTkQZluUpDbsvUL8LyNJ-7" target="gTkQZluUpDbsvUL8LyNJ-11">
          <mxGeometry relative="1" as="geometry">
            <mxPoint x="270" y="270" as="targetPoint" />
          </mxGeometry>
        </mxCell>
        <mxCell id="gTkQZluUpDbsvUL8LyNJ-7" value="r &amp;gt; R" style="rhombus;whiteSpace=wrap;html=1;" vertex="1" parent="1">
          <mxGeometry x="354" y="230" width="120" height="50" as="geometry" />
        </mxCell>
        <mxCell id="gTkQZluUpDbsvUL8LyNJ-16" style="edgeStyle=orthogonalEdgeStyle;rounded=0;orthogonalLoop=1;jettySize=auto;html=1;exitX=0.5;exitY=1;exitDx=0;exitDy=0;entryX=1;entryY=0.5;entryDx=0;entryDy=0;fontSize=12;" edge="1" parent="1" source="gTkQZluUpDbsvUL8LyNJ-9" target="gTkQZluUpDbsvUL8LyNJ-13">
          <mxGeometry relative="1" as="geometry" />
        </mxCell>
        <mxCell id="gTkQZluUpDbsvUL8LyNJ-9" value="Не принадлежит" style="shape=parallelogram;perimeter=parallelogramPerimeter;whiteSpace=wrap;html=1;fixedSize=1;" vertex="1" parent="1">
          <mxGeometry x="510" y="280" width="120" height="40" as="geometry" />
        </mxCell>
        <mxCell id="gTkQZluUpDbsvUL8LyNJ-15" style="edgeStyle=orthogonalEdgeStyle;rounded=0;orthogonalLoop=1;jettySize=auto;html=1;exitX=0.5;exitY=1;exitDx=0;exitDy=0;entryX=0;entryY=0.5;entryDx=0;entryDy=0;fontSize=12;" edge="1" parent="1" source="gTkQZluUpDbsvUL8LyNJ-11" target="gTkQZluUpDbsvUL8LyNJ-13">
          <mxGeometry relative="1" as="geometry" />
        </mxCell>
        <mxCell id="gTkQZluUpDbsvUL8LyNJ-11" value="Принадлежит" style="shape=parallelogram;perimeter=parallelogramPerimeter;whiteSpace=wrap;html=1;fixedSize=1;" vertex="1" parent="1">
          <mxGeometry x="214" y="280" width="120" height="40" as="geometry" />
        </mxCell>
        <mxCell id="gTkQZluUpDbsvUL8LyNJ-13" value="Конец" style="ellipse;whiteSpace=wrap;html=1;fontSize=12;align=center;" vertex="1" parent="1">
          <mxGeometry x="350" y="350" width="140" height="60" as="geometry" />
        </mxCell>
        <mxCell id="gTkQZluUpDbsvUL8LyNJ-17" value="нет" style="text;html=1;strokeColor=none;fillColor=none;align=center;verticalAlign=middle;whiteSpace=wrap;rounded=0;fontSize=12;" vertex="1" parent="1">
          <mxGeometry x="290" y="220" width="60" height="30" as="geometry" />
        </mxCell>
        <mxCell id="gTkQZluUpDbsvUL8LyNJ-18" value="да" style="text;html=1;strokeColor=none;fillColor=none;align=center;verticalAlign=middle;whiteSpace=wrap;rounded=0;fontSize=12;" vertex="1" parent="1">
          <mxGeometry x="490" y="220" width="60" height="30" as="geometry" />
        </mxCell>
      </root>
    </mxGraphModel>
  </diagram>
</mxfile>
